<?xml version="1.0" encoding="utf-8"?>
<!-- Generator: Adobe Illustrator 16.0.4, SVG Export Plug-In . SVG Version: 6.00 Build 0)  -->
<!DOCTYPE svg PUBLIC "-//W3C//DTD SVG 1.1//EN" "http://www.w3.org/Graphics/SVG/1.1/DTD/svg11.dtd">
<svg version="1.1" id="Layer_1" xmlns="http://www.w3.org/2000/svg" xmlns:xlink="http://www.w3.org/1999/xlink" x="0px" y="0px"
	 width="40px" height="40px" viewBox="0 0 40 40" enable-background="new 0 0 40 40" xml:space="preserve">
<g>
	<path fill="#FFD100" d="M35.158,20.229c0.001-0.014,0.002-0.029,0.002-0.043c0-2.381-1.755-4.311-3.921-4.311
		c-0.356,0-0.703,0.054-1.031,0.153c-1.112,0.652-2.207,1.408-3.264,2.282c-2.992,2.476-4.398,5.066-5.346,8.539
		c-0.011,0.041-0.001,0-0.011,0.041l-4.629-0.002c-0.046-0.102-0.096-0.202-0.145-0.304c-1.551-3.167-3.962-6.44-6.312-8.276
		c2.714,0.928,5.343,2.829,7.524,5.458c1.055-1.76,2.467-3.391,4.033-5c2.289-2.35,4.875-3.733,7.407-4.527
		c-0.635-1.441-1.973-2.437-3.526-2.437c-0.788,0-1.521,0.256-2.135,0.696c-0.513-1.725-1.987-2.972-3.727-2.972
		c-1.758,0-3.246,1.272-3.743,3.025c-0.618-0.449-1.359-0.71-2.156-0.71c-2.165,0-3.92,1.929-3.92,4.311
		c0,0.012,0.001,0.023,0.001,0.036c-0.429-0.178-0.894-0.275-1.38-0.275c-2.166,0-3.92,1.93-3.92,4.311
		c-2.166,0-3.921,1.93-3.921,4.311s1.755,4.312,3.921,4.312c0.123,0,0.243-0.007,0.362-0.02v0.02h29.51v-0.006
		c0.067,0.003,0.137,0.006,0.206,0.006c2.164,0,3.92-1.931,3.92-4.312C38.96,22.199,37.268,20.299,35.158,20.229z"/>
</g>
</svg>
