<?xml version="1.0" encoding="utf-8"?>
<!-- Generator: Adobe Illustrator 16.0.4, SVG Export Plug-In . SVG Version: 6.00 Build 0)  -->
<!DOCTYPE svg PUBLIC "-//W3C//DTD SVG 1.1//EN" "http://www.w3.org/Graphics/SVG/1.1/DTD/svg11.dtd">
<svg version="1.1" id="Layer_1" xmlns="http://www.w3.org/2000/svg" xmlns:xlink="http://www.w3.org/1999/xlink" x="0px" y="0px"
	 width="40px" height="40px" viewBox="0 0 40 40" enable-background="new 0 0 40 40" xml:space="preserve">
<g>
	<path fill="#F42534" d="M17.59,24.647c-0.177,0.316-0.364,0.628-0.547,0.941c-0.182,0.313-0.369,0.626-0.561,0.935
		c-0.191,0.31-0.375,0.623-0.572,0.928l-0.588,0.919l-0.605,0.907c-0.201,0.305-0.409,0.603-0.621,0.898
		c-0.212,0.298-0.417,0.598-0.635,0.889l-0.656,0.876c-0.216,0.293-0.454,0.568-0.68,0.857c-0.228,0.282-0.454,0.569-0.697,0.842
		l-0.503,0.58l4.238,3.747l4.645-17.479c-0.535,1.084-1.098,2.152-1.683,3.21C17.952,24.016,17.769,24.329,17.59,24.647z"/>
	<path fill="#F42534" d="M28.572,33.64c-0.245-0.272-0.471-0.56-0.698-0.842c-0.226-0.289-0.464-0.564-0.68-0.857l-0.655-0.876
		c-0.219-0.291-0.424-0.591-0.636-0.889c-0.212-0.296-0.42-0.594-0.619-0.898l-0.606-0.907l-0.587-0.919
		c-0.198-0.305-0.381-0.618-0.573-0.928c-0.191-0.309-0.379-0.621-0.56-0.935c-0.184-0.313-0.371-0.625-0.549-0.941
		c-0.178-0.318-0.361-0.632-0.535-0.95c-0.584-1.056-1.147-2.125-1.682-3.209l4.646,17.479l4.236-3.747L28.572,33.64z"/>
	<path fill="#F42534" d="M34.698,18.942c2.116-0.001,3.829-1.809,3.828-4.039c-0.001-2.188-1.654-3.966-3.716-4.03
		c0-0.014,0-0.027,0-0.041c-0.001-2.229-1.717-4.034-3.832-4.033c-0.476,0-0.929,0.092-1.349,0.259c0-0.011,0.001-0.022,0.001-0.034
		c-0.002-2.229-1.718-4.035-3.834-4.033c-0.77,0-1.486,0.241-2.086,0.653c-0.501-1.614-1.942-2.781-3.642-2.78
		c-1.719,0.001-3.171,1.193-3.656,2.835c-0.604-0.42-1.329-0.665-2.106-0.664c-2.116,0.001-3.829,1.809-3.828,4.038
		c0,0.012,0,0.023,0,0.035C10.06,6.941,9.605,6.85,9.13,6.85c-2.115,0.001-3.829,1.809-3.828,4.038
		c-2.115,0.001-3.829,1.809-3.828,4.038c0.001,2.105,1.533,3.832,3.485,4.016l-0.001,0.001c0.299,10.211-3.423,16.167-3.423,16.167
		c1.032,0.429,2.064,0.806,3.096,1.145c3.873-5.925,4.02-17.312,4.02-17.312h1.963c-0.208,8.723-2.004,15.124-3.054,18.162
		c2.404,0.614,4.78,1.024,7.083,1.267l-4.385-3.88l-0.242-0.215l0.219-0.246l0,0l0.723-0.799c0.245-0.264,0.473-0.542,0.704-0.817
		c0.229-0.277,0.469-0.546,0.688-0.833l0.667-0.851c0.221-0.282,0.43-0.578,0.646-0.866c0.217-0.289,0.429-0.58,0.633-0.877
		l0.619-0.889l0.602-0.9c0.203-0.299,0.392-0.607,0.588-0.911c0.196-0.302,0.388-0.607,0.577-0.917
		c0.188-0.309,0.381-0.614,0.564-0.926c0.183-0.312,0.372-0.619,0.551-0.935c0.726-1.249,1.425-2.518,2.074-3.807L20,19.421
		l0.131,0.281c0.648,1.29,1.348,2.558,2.073,3.807c0.18,0.315,0.368,0.623,0.551,0.935s0.376,0.617,0.564,0.926
		c0.188,0.31,0.38,0.615,0.576,0.917c0.196,0.304,0.385,0.612,0.588,0.911l0.602,0.9l0.62,0.889
		c0.204,0.297,0.417,0.588,0.633,0.877c0.216,0.288,0.425,0.584,0.646,0.866l0.666,0.851c0.219,0.287,0.459,0.556,0.688,0.833
		c0.231,0.275,0.459,0.554,0.704,0.817l0.724,0.799l0,0l0.219,0.246l-0.241,0.215l-4.492,3.972c2.702-0.221,5.116-0.598,7.121-0.997
		c-1.022-2.869-2.962-9.437-3.179-18.523h1.962c0,0,0.157,12.05,4.367,17.808c1.91-0.492,3.004-0.887,3.004-0.887
		C33.959,29.403,34.698,18.942,34.698,18.942z"/>
</g>
</svg>
