<?xml version="1.0" encoding="utf-8"?>
<!-- Generator: Adobe Illustrator 16.0.4, SVG Export Plug-In . SVG Version: 6.00 Build 0)  -->
<!DOCTYPE svg PUBLIC "-//W3C//DTD SVG 1.1//EN" "http://www.w3.org/Graphics/SVG/1.1/DTD/svg11.dtd">
<svg version="1.1" id="Layer_1" xmlns="http://www.w3.org/2000/svg" xmlns:xlink="http://www.w3.org/1999/xlink" x="0px" y="0px"
	 width="40px" height="40px" viewBox="0 0 40 40" enable-background="new 0 0 40 40" xml:space="preserve">
<path fill="#27AAE1" d="M19.162,34.779c0.005-0.008,0.012-0.014,0.02-0.02c1.054-1.055,1.096-2.723,0.095-3.723
	c-0.225-0.225-0.483-0.396-0.76-0.518c0.005-0.004,0.01-0.01,0.016-0.014c1.054-1.057,1.096-2.721,0.094-3.721
	c-0.364-0.365-0.817-0.592-1.297-0.68c0.527-1.002,0.397-2.236-0.408-3.041c-0.812-0.811-2.064-0.934-3.07-0.387
	c-0.088-0.484-0.315-0.944-0.683-1.312c-1.003-1-2.669-0.955-3.723,0.1c-0.005,0.006-0.011,0.012-0.016,0.016
	c-0.12-0.277-0.292-0.535-0.516-0.76c-1.002-1-2.668-0.956-3.723,0.1c-1.001-1-2.668-0.956-3.723,0.1
	c-1.054,1.056-1.097,2.722-0.094,3.724c0.056,0.057,0.115,0.109,0.176,0.158l-0.008,0.008l13.652,13.639l0.004-0.004
	c0.029,0.033,0.06,0.066,0.092,0.1c1.001,1,2.668,0.955,3.723-0.102C20.047,37.41,20.106,35.783,19.162,34.779z"/>
<path fill="#FFD100" d="M28.837,25.145c0.007-0.006,0.014-0.012,0.02-0.018c1.055-1.057,1.097-2.723,0.096-3.722
	c-0.226-0.225-0.483-0.396-0.761-0.518c0.005-0.004,0.011-0.01,0.017-0.014c1.054-1.056,1.097-2.723,0.095-3.723
	c-0.365-0.365-0.817-0.589-1.297-0.678c0.527-1.001,0.397-2.235-0.408-3.04c-0.813-0.812-2.065-0.936-3.071-0.389
	c-0.088-0.484-0.314-0.943-0.684-1.311c-1.001-1-2.668-0.956-3.721,0.099c-0.006,0.005-0.011,0.011-0.016,0.016
	c-0.12-0.276-0.292-0.535-0.516-0.76c-1.003-1-2.67-0.956-3.723,0.1c-1.003-1-2.668-0.956-3.723,0.099
	c-1.054,1.056-1.097,2.722-0.096,3.723c0.057,0.057,0.117,0.11,0.177,0.159l-0.009,0.009l13.654,13.638l0.002-0.004
	c0.03,0.033,0.062,0.064,0.093,0.098c1.002,1,2.669,0.955,3.723-0.098C29.724,27.775,29.782,26.152,28.837,25.145z"/>
<path fill="#ED1C24" d="M38.513,15.513c0.007-0.006,0.013-0.012,0.021-0.019c1.054-1.055,1.096-2.722,0.094-3.723
	c-0.225-0.225-0.482-0.396-0.76-0.515c0.005-0.005,0.01-0.011,0.017-0.016c1.054-1.055,1.096-2.722,0.094-3.722
	c-0.364-0.364-0.817-0.589-1.295-0.678c0.525-1.001,0.396-2.236-0.41-3.04c-0.812-0.812-2.063-0.936-3.07-0.388
	c-0.087-0.485-0.315-0.943-0.683-1.311C31.518,1.1,29.851,1.145,28.797,2.2c-0.005,0.005-0.01,0.011-0.016,0.017
	c-0.12-0.278-0.292-0.536-0.517-0.76c-1.001-1.001-2.668-0.956-3.723,0.099c-1.001-1.001-2.669-0.956-3.723,0.099
	c-1.053,1.056-1.096,2.722-0.094,3.723c0.056,0.057,0.115,0.11,0.176,0.159l-0.008,0.009l13.654,13.637l0.002-0.002
	c0.03,0.033,0.061,0.065,0.093,0.098c1.001,1,2.668,0.957,3.723-0.1C39.398,18.143,39.459,16.519,38.513,15.513z"/>
</svg>
