<?xml version="1.0" encoding="utf-8"?>
<!-- Generator: Adobe Illustrator 16.0.4, SVG Export Plug-In . SVG Version: 6.00 Build 0)  -->
<!DOCTYPE svg PUBLIC "-//W3C//DTD SVG 1.1//EN" "http://www.w3.org/Graphics/SVG/1.1/DTD/svg11.dtd">
<svg version="1.1" id="Layer_1" xmlns="http://www.w3.org/2000/svg" xmlns:xlink="http://www.w3.org/1999/xlink" x="0px" y="0px"
	 width="40px" height="40px" viewBox="0 0 40 40" enable-background="new 0 0 40 40" xml:space="preserve">
<g>
	<path fill="#00A651" d="M35.28,18.971c0-0.015,0.001-0.029,0.001-0.043c0-2.4-1.77-4.345-3.951-4.345
		c-0.49,0-0.959,0.099-1.392,0.278c0-0.013,0.001-0.024,0.001-0.036c0-2.4-1.77-4.346-3.951-4.346c-0.795,0-1.534,0.258-2.152,0.702
		c-0.517-1.739-2.003-2.995-3.757-2.995c-1.772,0-3.271,1.282-3.772,3.049c-0.624-0.453-1.37-0.716-2.173-0.716
		c-2.182,0-3.952,1.945-3.952,4.345c0,0.012,0.001,0.024,0.001,0.036c-0.433-0.179-0.901-0.278-1.391-0.278
		c-2.182,0-3.951,1.945-3.951,4.346c-2.183,0-3.952,1.945-3.952,4.345c0,2.399,1.769,4.346,3.952,4.346
		c0.123,0,0.245-0.007,0.365-0.02v0.02h29.746v-0.007c0.068,0.004,0.138,0.007,0.207,0.007c2.183,0,3.951-1.946,3.951-4.346
		C39.11,20.958,37.406,19.042,35.28,18.971z M26.509,20.893H21.17v5.339h-2.025v-5.339h-5.34v-2.026h5.34v-5.338h2.025v5.338h5.339
		V20.893z"/>
</g>
</svg>
