<?xml version="1.0" encoding="utf-8"?>
<!-- Generator: Adobe Illustrator 16.0.4, SVG Export Plug-In . SVG Version: 6.00 Build 0)  -->
<!DOCTYPE svg PUBLIC "-//W3C//DTD SVG 1.1//EN" "http://www.w3.org/Graphics/SVG/1.1/DTD/svg11.dtd">
<svg version="1.1" id="Layer_1" xmlns="http://www.w3.org/2000/svg" xmlns:xlink="http://www.w3.org/1999/xlink" x="0px" y="0px"
	 width="40px" height="40px" viewBox="0 0 40 40" enable-background="new 0 0 40 40" xml:space="preserve">
<path fill="#FFD100" d="M35.875,11.336c0-0.015,0-0.029,0-0.043c-0.002-2.386-1.839-4.32-4.104-4.319
	c-0.508,0-0.994,0.099-1.442,0.277c0-0.012,0-0.024,0-0.036c-0.002-2.387-1.839-4.32-4.104-4.319c-0.823,0-1.591,0.259-2.232,0.7
	c-0.537-1.729-2.082-2.979-3.901-2.977c-1.84,0.001-3.395,1.278-3.914,3.036c-0.648-0.45-1.424-0.712-2.256-0.711
	c-2.265,0.001-4.1,1.937-4.099,4.324c0,0.012,0.001,0.024,0.001,0.037c-0.45-0.178-0.937-0.276-1.444-0.276
	c-2.266,0.001-4.1,1.937-4.099,4.324c-2.265,0.001-4.101,1.937-4.099,4.324c0.001,2.387,1.839,4.32,4.104,4.319
	c0.127,0,0.254-0.007,0.379-0.019v0.019l30.875-0.019v-0.006c0.071,0.004,0.143,0.006,0.215,0.006
	c2.265-0.002,4.1-1.938,4.099-4.324C39.852,13.309,38.081,11.405,35.875,11.336z"/>
<g>
	<path d="M35.254,21.119H4.206c-0.273,0-0.495,0.135-0.495,0.303v17.656c0,0.167,0.221,0.302,0.495,0.302h11.12v-9.243
		c0-0.249,0.196-0.452,0.438-0.452h8.399c0.241,0,0.438,0.203,0.438,0.452v9.243h10.653c0.272,0,0.495-0.135,0.495-0.302V21.422
		C35.749,21.254,35.526,21.119,35.254,21.119z"/>
</g>
</svg>
