<?xml version="1.0" encoding="utf-8"?>
<!-- Generator: Adobe Illustrator 16.0.4, SVG Export Plug-In . SVG Version: 6.00 Build 0)  -->
<!DOCTYPE svg PUBLIC "-//W3C//DTD SVG 1.1//EN" "http://www.w3.org/Graphics/SVG/1.1/DTD/svg11.dtd">
<svg version="1.1" id="Layer_1" xmlns="http://www.w3.org/2000/svg" xmlns:xlink="http://www.w3.org/1999/xlink" x="0px" y="0px"
	 width="40px" height="40px" viewBox="0 0 40 40" enable-background="new 0 0 40 40" xml:space="preserve">
<g>
	<path fill="#27AAE1" d="M34.701,21.492c0-0.014,0.001-0.028,0.001-0.042c0-2.309-1.702-4.181-3.802-4.181
		c-0.471,0-0.922,0.095-1.338,0.268c0-0.012,0-0.023,0-0.035c0-2.309-1.701-4.181-3.801-4.181c-0.765,0-1.476,0.249-2.071,0.675
		c-0.497-1.673-1.927-2.882-3.614-2.882c-1.705,0-3.147,1.234-3.63,2.934c-0.6-0.435-1.317-0.689-2.09-0.689
		c-2.1,0-3.802,1.872-3.802,4.181c0,0.012,0.001,0.022,0.001,0.035c-0.417-0.173-0.867-0.268-1.339-0.268
		c-2.1,0-3.802,1.871-3.802,4.181c-2.1,0-3.802,1.871-3.802,4.181c0,2.309,1.702,4.181,3.802,4.181c0.119,0,0.236-0.007,0.353-0.019
		v0.019h28.618v-0.006c0.065,0.004,0.132,0.006,0.199,0.006c2.1,0,3.802-1.872,3.802-4.181
		C38.387,23.404,36.747,21.561,34.701,21.492z M22.644,16.309c-0.074,0.407-0.174,0.811-0.299,1.211s-0.257,0.77-0.396,1.106
		l-2.557,6.291c-0.25,0.631-0.406,1.089-0.469,1.374c-0.062,0.284-0.048,0.438,0.044,0.464c0.05,0.018,0.159-0.001,0.325-0.056
		c0.166-0.054,0.372-0.173,0.62-0.354s0.526-0.44,0.834-0.774c0.309-0.334,0.63-0.777,0.964-1.331
		c-0.354,0.871-0.733,1.584-1.138,2.137s-0.802,0.985-1.19,1.3c-0.39,0.313-0.752,0.53-1.089,0.65
		c-0.336,0.12-0.613,0.188-0.831,0.203c-0.437,0.032-0.77-0.075-0.999-0.322s-0.364-0.615-0.404-1.104
		c-0.04-0.489,0.019-1.077,0.176-1.765s0.404-1.456,0.74-2.306l2.599-6.341c0.026-0.065,0.071-0.18,0.136-0.343
		c0.065-0.163,0.133-0.353,0.204-0.57c0.071-0.216,0.142-0.446,0.212-0.689c0.069-0.243,0.12-0.476,0.15-0.7
		c0.031-0.224,0.039-0.425,0.023-0.604c-0.017-0.178-0.071-0.312-0.167-0.4l0.744-0.054c0.456-0.034,0.818,0.027,1.087,0.182
		c0.269,0.154,0.466,0.373,0.593,0.654c0.127,0.282,0.191,0.607,0.195,0.977C22.754,15.513,22.718,15.902,22.644,16.309z"/>
	<path fill="#27AAE1" d="M23.893,10.998c0.255-0.134,0.503-0.333,0.744-0.597s0.464-0.573,0.669-0.928s0.384-0.739,0.535-1.155
		c0.152-0.416,0.261-0.841,0.326-1.275c0.066-0.435,0.084-0.812,0.052-1.131c-0.032-0.319-0.107-0.574-0.225-0.763
		c-0.117-0.19-0.272-0.305-0.466-0.345c-0.194-0.04-0.413,0.005-0.657,0.137c-0.248,0.111-0.491,0.291-0.729,0.538
		c-0.238,0.248-0.461,0.544-0.667,0.888c-0.207,0.344-0.385,0.718-0.532,1.123c-0.148,0.404-0.256,0.818-0.323,1.243
		c-0.137,0.913-0.083,1.574,0.162,1.983C23.026,11.126,23.396,11.22,23.893,10.998z"/>
</g>
</svg>
