<?xml version="1.0" encoding="utf-8"?>
<!-- Generator: Adobe Illustrator 16.0.4, SVG Export Plug-In . SVG Version: 6.00 Build 0)  -->
<!DOCTYPE svg PUBLIC "-//W3C//DTD SVG 1.1//EN" "http://www.w3.org/Graphics/SVG/1.1/DTD/svg11.dtd">
<svg version="1.1" id="Layer_1" xmlns="http://www.w3.org/2000/svg" xmlns:xlink="http://www.w3.org/1999/xlink" x="0px" y="0px"
	 width="40px" height="40px" viewBox="0 0 40 40" enable-background="new 0 0 40 40" xml:space="preserve">
<g>
	<circle cx="13.971" cy="32.928" r="4.004"/>
	<path fill="#FFD100" d="M38.44,7.191H11.623c-0.229-0.027-0.461-0.043-0.696-0.043c-1.244,0.001-2.401,0.39-3.371,1.056
		C7.318,7.442,6.949,6.745,6.481,6.136h11.493V5.388H5.809C5.429,5.027,5.008,4.714,4.551,4.46H38.33V3.712H1.559v0.005V4.46v0.928
		v0.748v26.799l6.32-0.004c0-0.001,0-0.002,0-0.004c0-3.364,2.728-6.092,6.092-6.092c3.363,0,6.09,2.726,6.092,6.089l4.92-0.004
		v-0.009c0.107,0.006,0.215,0.009,0.324,0.009c3.419-0.002,6.188-2.923,6.186-6.524c-0.001-2.506-1.348-4.674-3.316-5.764H38.44
		v-0.748H25.492c-0.001,0-0.002-0.001-0.004-0.001c0-0.021,0.002-0.043,0.002-0.064c-0.001-0.881-0.169-1.72-0.47-2.486h9.23v-0.748
		h-9.582c-0.582-1.068-1.439-1.947-2.475-2.525H38.44v-0.748H19.497c-0.067-0.002-0.133-0.011-0.2-0.011
		c-0.767,0-1.501,0.149-2.179,0.418c0-0.018,0.001-0.036,0.001-0.055c0-1.106-0.265-2.146-0.726-3.058h9.699V9.859H15.945
		c-0.541-0.79-1.242-1.451-2.059-1.919H38.44V7.191z"/>
</g>
</svg>
