<?xml version="1.0" encoding="utf-8"?>
<!-- Generator: Adobe Illustrator 16.0.4, SVG Export Plug-In . SVG Version: 6.00 Build 0)  -->
<!DOCTYPE svg PUBLIC "-//W3C//DTD SVG 1.1//EN" "http://www.w3.org/Graphics/SVG/1.1/DTD/svg11.dtd">
<svg version="1.1" id="Layer_1" xmlns="http://www.w3.org/2000/svg" xmlns:xlink="http://www.w3.org/1999/xlink" x="0px" y="0px"
	 width="40px" height="40px" viewBox="0 0 40 40" enable-background="new 0 0 40 40" xml:space="preserve">
<g>
	<path fill="#27AAE1" d="M29.516,15.5c-0.542-1.635-1.965-2.805-3.639-2.805c-0.78,0-1.506,0.254-2.113,0.689
		c-0.506-1.707-1.965-2.94-3.686-2.94c-1.739,0-3.211,1.259-3.702,2.993c-0.612-0.444-1.345-0.703-2.132-0.703
		c-1.695,0-3.133,1.198-3.659,2.865L20,25.015L29.516,15.5z"/>
	<path fill="#27AAE1" d="M34.995,21.029c0-0.014,0.001-0.028,0.001-0.043c0-2.355-1.736-4.264-3.877-4.264
		c-0.137,0-0.271,0.01-0.402,0.025l-10.71,10.71L20,27.449l-0.007,0.008L9.314,16.777c-0.103-0.009-0.207-0.016-0.312-0.016
		c-2.142,0-3.878,1.909-3.878,4.265c-2.141,0-3.877,1.908-3.877,4.264s1.736,4.265,3.877,4.265c0.121,0,0.241-0.007,0.359-0.019
		v0.019h29.191v-0.006c0.066,0.003,0.134,0.006,0.203,0.006c2.142,0,3.877-1.909,3.877-4.265
		C38.754,22.979,37.082,21.098,34.995,21.029z"/>
</g>
</svg>
