<?xml version="1.0" encoding="utf-8"?>
<!-- Generator: Adobe Illustrator 16.0.4, SVG Export Plug-In . SVG Version: 6.00 Build 0)  -->
<!DOCTYPE svg PUBLIC "-//W3C//DTD SVG 1.1//EN" "http://www.w3.org/Graphics/SVG/1.1/DTD/svg11.dtd">
<svg version="1.1" id="Layer_1" xmlns="http://www.w3.org/2000/svg" xmlns:xlink="http://www.w3.org/1999/xlink" x="0px" y="0px"
	 width="40px" height="40px" viewBox="0 0 40 40" enable-background="new 0 0 40 40" xml:space="preserve">
<path fill="#27AAE1" d="M9.935,14.701c-0.004-0.004-0.007-0.008-0.011-0.012c-0.597-0.624-1.562-0.672-2.155-0.104
	c-0.132,0.127-0.234,0.274-0.309,0.434c-0.001-0.003-0.005-0.006-0.008-0.01c-0.597-0.625-1.562-0.671-2.154-0.104
	c-0.217,0.207-0.353,0.466-0.412,0.742c-0.573-0.318-1.29-0.26-1.765,0.197c-0.481,0.46-0.569,1.184-0.266,1.773
	c-0.283,0.044-0.55,0.169-0.769,0.377c-0.592,0.567-0.589,1.533,0.01,2.158c0.001,0.002,0.005,0.006,0.008,0.009
	c-0.161,0.066-0.313,0.162-0.447,0.29c-0.592,0.567-0.588,1.532,0.008,2.158c-0.593,0.566-0.589,1.532,0.008,2.156
	c0.235,0.245,0.527,0.4,0.83,0.464l11.953,6.335c-0.268,0.173-0.528,0.374-0.77,0.605c-1.565,1.513-1.869,3.736-0.679,4.97
	c1.191,1.233,3.424,1.008,4.989-0.504c1.566-1.512,1.869-3.737,0.679-4.969c-0.018-0.02-0.037-0.034-0.055-0.051l0.003-0.005
	l-0.018-0.008c-0.345-0.331-0.766-0.548-1.232-0.654L4.567,24.164l7.44-7.116l-0.001-0.002c0.019-0.017,0.039-0.034,0.057-0.052
	c0.594-0.567,0.589-1.533-0.007-2.157C11.469,14.223,10.53,14.167,9.935,14.701z"/>
<path fill="#00A651" d="M24.226,5.197c-0.003-0.005-0.004-0.01-0.005-0.016c-0.181-0.845-0.975-1.392-1.78-1.219
	C22.262,4,22.098,4.073,21.95,4.169c0-0.004-0.001-0.008-0.002-0.012c-0.18-0.846-0.977-1.392-1.779-1.22
	C19.877,3,19.625,3.149,19.431,3.354c-0.321-0.571-0.962-0.897-1.607-0.76c-0.651,0.14-1.104,0.709-1.157,1.371
	c-0.263-0.11-0.557-0.144-0.852-0.081C15.014,4.056,14.51,4.88,14.69,5.725c0.001,0.004,0.002,0.009,0.003,0.013
	c-0.172-0.029-0.352-0.026-0.532,0.012c-0.802,0.171-1.305,0.996-1.124,1.841c-0.803,0.172-1.307,0.996-1.125,1.841
	c0.07,0.332,0.237,0.616,0.462,0.831l6.851,11.663c-0.317,0.007-0.644,0.041-0.973,0.112c-2.125,0.465-3.549,2.2-3.183,3.875
	c0.366,1.672,2.385,2.654,4.511,2.189c2.125-0.467,3.551-2.2,3.185-3.876c-0.006-0.024-0.016-0.047-0.022-0.07l0.005-0.003
	l-0.01-0.018c-0.119-0.462-0.363-0.867-0.705-1.2L14.69,10.437l10.067-2.154L24.757,8.28c0.027-0.003,0.054-0.008,0.078-0.015
	c0.802-0.17,1.306-0.995,1.125-1.84C25.782,5.596,25.011,5.055,24.226,5.197z"/>
<path fill="#ED1C24" d="M38.133,7.693c0.001-0.004,0.006-0.008,0.007-0.012c0.28-0.627,0.025-1.352-0.57-1.618
	c-0.133-0.06-0.272-0.091-0.411-0.098c0.001-0.003,0.003-0.005,0.004-0.009c0.281-0.627,0.025-1.352-0.57-1.617
	c-0.216-0.098-0.447-0.12-0.667-0.08c0.06-0.518-0.196-1.027-0.676-1.242c-0.482-0.216-1.042-0.063-1.386,0.336
	C33.746,3.161,33.574,3,33.355,2.903c-0.595-0.267-1.306,0.026-1.585,0.653c-0.002,0.002-0.003,0.006-0.007,0.009
	c-0.096-0.099-0.21-0.183-0.344-0.243c-0.596-0.266-1.307,0.026-1.587,0.653c-0.596-0.266-1.306,0.026-1.585,0.653
	c-0.112,0.248-0.137,0.508-0.096,0.75l-1.077,10.699c-0.207-0.146-0.433-0.277-0.678-0.385c-1.58-0.7-3.309-0.256-3.86,0.99
	c-0.553,1.247,0.284,2.824,1.865,3.522c1.582,0.7,3.311,0.256,3.86-0.989c0.009-0.019,0.015-0.038,0.021-0.058l0.005,0.002
	l0.002-0.017c0.138-0.352,0.172-0.728,0.11-1.102l1.157-11.463l7.47,3.344L37.027,9.92c0.019,0.01,0.037,0.02,0.058,0.027
	c0.596,0.266,1.306-0.027,1.586-0.653C38.946,8.679,38.705,7.97,38.133,7.693z"/>
</svg>
