<?xml version="1.0" encoding="utf-8"?>
<!-- Generator: Adobe Illustrator 16.0.4, SVG Export Plug-In . SVG Version: 6.00 Build 0)  -->
<!DOCTYPE svg PUBLIC "-//W3C//DTD SVG 1.1//EN" "http://www.w3.org/Graphics/SVG/1.1/DTD/svg11.dtd">
<svg version="1.1" id="Layer_1" xmlns="http://www.w3.org/2000/svg" xmlns:xlink="http://www.w3.org/1999/xlink" x="0px" y="0px"
	 width="40px" height="40px" viewBox="0 0 40 40" enable-background="new 0 0 40 40" xml:space="preserve">
<g>
	
		<ellipse transform="matrix(0.194 0.981 -0.981 0.194 20.7545 -5.416)" fill="#ED1C24" cx="13.673" cy="9.923" rx="8.294" ry="4.651"/>
	
		<ellipse transform="matrix(0.194 0.981 -0.981 0.194 24.0941 10.0853)" fill="#ED1C24" cx="5.91" cy="19.705" rx="7.3" ry="4.093"/>
	
		<ellipse transform="matrix(-0.1939 0.981 -0.981 -0.1939 40.5378 -13.17)" fill="#ED1C24" cx="25.68" cy="10.07" rx="8.294" ry="4.652"/>
	
		<ellipse transform="matrix(0.1939 -0.981 0.981 0.1939 7.5573 48.8659)" fill="#ED1C24" cx="33.514" cy="19.834" rx="7.299" ry="4.095"/>
	<path fill="#ED1C24" d="M29.47,27.764l0.032-0.046c0,0-7.188-3.125-7.663-6.068l-0.001,0.004c-0.367-2.002-1.176-3.396-2.118-3.396
		c-0.94,0-1.75,1.394-2.116,3.396l-0.001-0.004c-0.351,2.174-4.359,4.443-6.434,5.484c-0.233,0.091-0.465,0.191-0.696,0.303
		c-0.183,0.089-0.36,0.183-0.533,0.281l0,0l0,0c-3.194,1.809-4.759,5.181-3.508,7.764c1.319,2.723,5.267,3.537,8.817,1.817
		c1.737-0.841,3.054-2.133,3.796-3.551v0.001c0,0,0.651-1.329,1.283-0.071c0.012,0.021,0.021,0.042,0.032,0.062
		c0.001,0.004,0.003,0.006,0.003,0.009l0.001-0.001c0.734,1.443,2.066,2.761,3.829,3.613c3.55,1.721,7.498,0.906,8.817-1.815
		C34.265,32.953,32.687,29.567,29.47,27.764z"/>
</g>
</svg>
