<?xml version="1.0" encoding="utf-8"?>
<!-- Generator: Adobe Illustrator 16.0.4, SVG Export Plug-In . SVG Version: 6.00 Build 0)  -->
<!DOCTYPE svg PUBLIC "-//W3C//DTD SVG 1.1//EN" "http://www.w3.org/Graphics/SVG/1.1/DTD/svg11.dtd">
<svg version="1.1" id="Layer_1" xmlns="http://www.w3.org/2000/svg" xmlns:xlink="http://www.w3.org/1999/xlink" x="0px" y="0px"
	 width="40px" height="40px" viewBox="0 0 40 40" enable-background="new 0 0 40 40" xml:space="preserve">
<g>
	<path fill="#ED1C24" d="M34.753,19.775c0.001-0.015,0.001-0.028,0.001-0.043c0-2.317-1.708-4.195-3.814-4.195
		c-0.474,0-0.927,0.095-1.345,0.268c0-0.011,0.001-0.023,0.001-0.034c0-2.318-1.708-4.196-3.815-4.196
		c-0.766,0-1.479,0.25-2.077,0.678c-0.498-1.679-1.934-2.892-3.626-2.892c-1.711,0-3.159,1.238-3.643,2.945
		c-0.603-0.438-1.323-0.692-2.098-0.692c-2.107,0-3.815,1.878-3.815,4.195c0,0.012,0,0.024,0,0.036
		c-0.417-0.173-0.871-0.269-1.343-0.269c-2.106,0-3.814,1.878-3.814,4.196c-2.107,0-3.815,1.878-3.815,4.195
		s1.708,4.195,3.815,4.195c0.119,0,0.237-0.007,0.353-0.018v0.018h28.72v-0.006c0.065,0.005,0.133,0.006,0.2,0.006
		c2.106,0,3.814-1.878,3.814-4.195C38.451,21.692,36.806,19.843,34.753,19.775z M24.589,21.343L20,26.252l-4.591-4.911
		c-0.099-0.094-0.192-0.194-0.279-0.3l0,0l0,0c-0.448-0.547-0.716-1.245-0.716-2.007c0-1.751,1.419-3.17,3.171-3.17
		c0.967,0,1.833,0.434,2.416,1.117c0.582-0.684,1.447-1.117,2.415-1.117c1.752,0,3.171,1.419,3.171,3.17
		C25.586,19.944,25.203,20.763,24.589,21.343z"/>
</g>
</svg>
