<?xml version="1.0" encoding="utf-8"?>
<!-- Generator: Adobe Illustrator 16.0.4, SVG Export Plug-In . SVG Version: 6.00 Build 0)  -->
<!DOCTYPE svg PUBLIC "-//W3C//DTD SVG 1.1//EN" "http://www.w3.org/Graphics/SVG/1.1/DTD/svg11.dtd">
<svg version="1.1" id="Layer_1" xmlns="http://www.w3.org/2000/svg" xmlns:xlink="http://www.w3.org/1999/xlink" x="0px" y="0px"
	 width="40px" height="40px" viewBox="0 0 40 40" enable-background="new 0 0 40 40" xml:space="preserve">
<path fill="#00A651" d="M34.593,24.209c0.008-0.007,0.02-0.014,0.029-0.021c1.594-1.208,1.957-3.414,0.811-4.926
	c-0.257-0.34-0.568-0.615-0.914-0.826c0.008-0.005,0.017-0.011,0.024-0.017c1.595-1.207,1.957-3.412,0.811-4.925
	c-0.416-0.551-0.976-0.934-1.597-1.14c0.885-1.233,0.939-2.896,0.019-4.111c-0.931-1.229-2.569-1.623-4.007-1.082
	c-0.027-0.66-0.243-1.31-0.664-1.867c-1.147-1.513-3.367-1.761-4.962-0.554c-0.008,0.007-0.016,0.014-0.023,0.019
	c-0.107-0.39-0.288-0.765-0.546-1.104c-1.146-1.513-3.367-1.761-4.961-0.553c-1.146-1.513-3.367-1.762-4.961-0.554
	c-1.595,1.207-1.958,3.412-0.812,4.925c0.065,0.086,0.134,0.167,0.206,0.244l-0.013,0.01l15.617,20.624l0.004-0.004
	c0.033,0.051,0.068,0.1,0.104,0.147c1.146,1.513,3.368,1.762,4.962,0.554C35.282,27.864,35.661,25.719,34.593,24.209z"/>
<path d="M34.935,31.07l-1.445,0.002l-3.736,0.001l0,0L3.897,31.087L3.9,37.445l31.038-0.017L34.935,31.07L34.935,31.07L34.935,31.07
	z M33.986,36.478l-1.164,0.001l-0.002-4.455h1.164L33.986,36.478z M31.869,32.023l0.002,4.455l-1.164,0.001l-0.002-4.455
	L31.869,32.023z M4.849,32.038l24.905-0.013l0.001,4.454L4.852,36.492L4.849,32.038z"/>
</svg>
